<svg width="240" height="24" viewBox="0 0 240 24" fill="none" xmlns="http://www.w3.org/2000/svg">
<path d="M8.46657 0C7.85351 0.00048986 7.2657 0.244244 6.8322 0.677743C6.3987 1.11124 6.15495 1.69905 6.15446 2.31211C6.15446 3.58747 7.19121 4.62422 8.46657 4.62422C9.74193 4.62422 10.7787 3.58747 10.7787 2.31211C10.7787 1.03675 9.74193 0 8.46657 0ZM6.09712 5.54907C5.50429 5.54907 5.27308 5.75161 4.91147 5.95415L1.84838 8.55481C1.5774 8.71018 1.4322 8.95249 1.32769 9.27711L0.663656 13.6701C0.569322 14.3712 0.93741 14.6532 1.35729 14.7392C1.69671 14.8086 2.20907 14.6532 2.30988 14.1621C2.39311 13.7571 3.00351 10.1733 3.00351 10.1733L4.9984 8.64175C4.72967 9.89219 4.46947 11.1445 4.21783 12.3985C4.03009 13.3705 4.53228 14.1076 4.91147 14.6819C5.26291 15.2091 9.7484 22.3193 10.3449 23.0924C10.9415 23.8656 11.4797 24.2485 12.3102 23.7861C13.0039 23.3995 12.8993 22.5033 12.5128 21.8494C10.8705 19.1584 9.22303 16.4705 7.57039 13.7857L8.35096 10.4914C8.35096 10.4914 8.88552 11.2498 9.1602 11.6762C9.28968 11.8787 9.40991 11.9684 9.7669 12.1673C10.1859 12.3985 12.2131 13.3048 12.8309 13.5832C13.3793 13.8292 14.0887 13.9235 14.3624 13.4389C14.6371 12.9552 14.2829 12.3846 13.8714 12.1959C13.4228 11.9906 10.4319 10.4914 10.4319 10.4914C10.4319 10.4914 9.35904 8.25886 8.81338 7.02327C8.30009 5.85981 7.95698 5.54907 7.22358 5.54907H6.09712ZM3.81275 15.173L2.88791 18.41L0.432445 21.9937C0.0310622 22.5791 -0.283385 23.2654 0.40285 23.7861C1.17232 24.3678 1.79382 23.627 2.1952 23.1784C2.55959 22.7669 4.05506 20.6749 4.47771 20.145C4.75979 19.7898 4.90777 19.4865 5.02707 19.1905C5.10661 18.9917 5.40996 18.1898 5.6051 17.659L3.81275 15.173Z" fill="#0C1D37"/>
<path d="M37.0595 14.86C37.2328 14.86 37.3661 14.9467 37.4595 15.12C37.5528 15.2933 37.5995 15.5133 37.5995 15.78C37.5995 16.1133 37.5528 16.3733 37.4595 16.56C37.3661 16.7333 37.2195 16.8533 37.0195 16.92C36.2195 17.2 35.3395 17.36 34.3795 17.4C34.1128 18.5067 33.6061 19.4 32.8595 20.08C32.1261 20.76 31.3128 21.1 30.4195 21.1C29.0728 21.1 28.0928 20.5867 27.4795 19.56C26.8661 18.5333 26.5595 17.0467 26.5595 15.1C26.5595 13.38 26.7728 11.5133 27.1995 9.5C27.6261 7.47333 28.2461 5.75333 29.0595 4.34C29.8861 2.91333 30.8661 2.2 31.9995 2.2C32.6128 2.2 33.1061 2.46667 33.4795 3C33.8528 3.52 34.0395 4.2 34.0395 5.04C34.0395 6.13333 33.8328 7.22 33.4195 8.3C33.0061 9.38 32.3195 10.5133 31.3595 11.7C32.2528 11.7667 32.9795 12.14 33.5395 12.82C34.0995 13.4867 34.4328 14.3133 34.5395 15.3C35.1661 15.26 35.9128 15.1267 36.7795 14.9C36.8595 14.8733 36.9528 14.86 37.0595 14.86ZM31.5395 4.18C31.2728 4.18 30.9795 4.58 30.6595 5.38C30.3528 6.16667 30.0661 7.24 29.7995 8.6C29.5328 9.96 29.3328 11.4467 29.1995 13.06C30.0795 11.4467 30.7795 10.0267 31.2995 8.8C31.8328 7.56 32.0995 6.46 32.0995 5.5C32.0995 5.07333 32.0461 4.74667 31.9395 4.52C31.8461 4.29333 31.7128 4.18 31.5395 4.18ZM30.4995 18.98C30.9128 18.98 31.2795 18.8067 31.5995 18.46C31.9195 18.1133 32.1328 17.6133 32.2395 16.96C31.8261 16.68 31.5061 16.3133 31.2795 15.86C31.0661 15.4067 30.9595 14.9267 30.9595 14.42C30.9595 14.2333 30.9861 13.98 31.0395 13.66H30.9795C30.4328 13.66 29.9728 13.9333 29.5995 14.48C29.2395 15.0133 29.0595 15.7333 29.0595 16.64C29.0595 17.4 29.1995 17.98 29.4795 18.38C29.7728 18.78 30.1128 18.98 30.4995 18.98ZM40.3326 21.1C39.5059 21.1 38.8459 20.8 38.3526 20.2C37.8593 19.6 37.6126 18.8133 37.6126 17.84C37.6126 16.7733 37.8593 15.7667 38.3526 14.82C38.8459 13.86 39.4993 13.0933 40.3126 12.52C41.1393 11.9333 42.0126 11.64 42.9326 11.64C43.2259 11.64 43.4193 11.7 43.5126 11.82C43.6193 11.9267 43.7059 12.1267 43.7726 12.42C44.0526 12.3667 44.3459 12.34 44.6526 12.34C45.3059 12.34 45.6326 12.5733 45.6326 13.04C45.6326 13.32 45.5326 13.9867 45.3326 15.04C45.0259 16.5733 44.8726 17.64 44.8726 18.24C44.8726 18.44 44.9193 18.6 45.0126 18.72C45.1193 18.84 45.2526 18.9 45.4126 18.9C45.6659 18.9 45.9726 18.74 46.3326 18.42C46.6926 18.0867 47.1793 17.5533 47.7926 16.82C47.9526 16.6333 48.1326 16.54 48.3326 16.54C48.5059 16.54 48.6393 16.62 48.7326 16.78C48.8393 16.94 48.8926 17.16 48.8926 17.44C48.8926 17.9733 48.7659 18.3867 48.5126 18.68C47.9659 19.36 47.3859 19.9333 46.7726 20.4C46.1593 20.8667 45.5659 21.1 44.9926 21.1C44.5526 21.1 44.1459 20.9533 43.7726 20.66C43.4126 20.3533 43.1393 19.94 42.9526 19.42C42.2593 20.54 41.3859 21.1 40.3326 21.1ZM41.0526 19.08C41.3459 19.08 41.6259 18.9067 41.8926 18.56C42.1593 18.2133 42.3526 17.7533 42.4726 17.18L43.2126 13.5C42.6526 13.5133 42.1326 13.7267 41.6526 14.14C41.1859 14.54 40.8126 15.0733 40.5326 15.74C40.2526 16.4067 40.1126 17.1133 40.1126 17.86C40.1126 18.2733 40.1926 18.58 40.3526 18.78C40.5259 18.98 40.7593 19.08 41.0526 19.08ZM51.7271 21.1C50.9005 21.1 50.2405 20.8 49.7471 20.2C49.2538 19.6 49.0071 18.8133 49.0071 17.84C49.0071 16.7733 49.2538 15.7667 49.7471 14.82C50.2405 13.86 50.8938 13.0933 51.7071 12.52C52.5338 11.9333 53.4071 11.64 54.3271 11.64C54.6205 11.64 54.8138 11.7 54.9071 11.82C55.0138 11.9267 55.1005 12.1267 55.1671 12.42C55.4471 12.3667 55.7405 12.34 56.0471 12.34C56.7005 12.34 57.0271 12.5733 57.0271 13.04C57.0271 13.32 56.9271 13.9867 56.7271 15.04C56.4205 16.5733 56.2671 17.64 56.2671 18.24C56.2671 18.44 56.3138 18.6 56.4071 18.72C56.5138 18.84 56.6471 18.9 56.8071 18.9C57.0605 18.9 57.3671 18.74 57.7271 18.42C58.0871 18.0867 58.5738 17.5533 59.1871 16.82C59.3471 16.6333 59.5271 16.54 59.7271 16.54C59.9005 16.54 60.0338 16.62 60.1271 16.78C60.2338 16.94 60.2871 17.16 60.2871 17.44C60.2871 17.9733 60.1605 18.3867 59.9071 18.68C59.3605 19.36 58.7805 19.9333 58.1671 20.4C57.5538 20.8667 56.9605 21.1 56.3871 21.1C55.9471 21.1 55.5405 20.9533 55.1671 20.66C54.8071 20.3533 54.5338 19.94 54.3471 19.42C53.6538 20.54 52.7805 21.1 51.7271 21.1ZM52.4471 19.08C52.7405 19.08 53.0205 18.9067 53.2871 18.56C53.5538 18.2133 53.7471 17.7533 53.8671 17.18L54.6071 13.5C54.0471 13.5133 53.5271 13.7267 53.0471 14.14C52.5805 14.54 52.2071 15.0733 51.9271 15.74C51.6471 16.4067 51.5071 17.1133 51.5071 17.86C51.5071 18.2733 51.5871 18.58 51.7471 18.78C51.9205 18.98 52.1538 19.08 52.4471 19.08ZM69.5817 16.54C69.755 16.54 69.8883 16.62 69.9817 16.78C70.0883 16.94 70.1417 17.16 70.1417 17.44C70.1417 17.9733 70.015 18.3867 69.7617 18.68C69.1883 19.3867 68.5617 19.9667 67.8817 20.42C67.2017 20.8733 66.4217 21.1 65.5417 21.1C62.8217 21.1 61.4617 19.1867 61.4617 15.36C61.4617 14.7733 61.4817 14.18 61.5217 13.58H60.7417C60.3417 13.58 60.0683 13.5067 59.9217 13.36C59.7883 13.2133 59.7217 12.98 59.7217 12.66C59.7217 11.9133 60.0217 11.54 60.6217 11.54H61.7617C61.9883 10.0733 62.335 8.73333 62.8017 7.52C63.2683 6.30667 63.8283 5.34 64.4817 4.62C65.1483 3.9 65.8617 3.54 66.6217 3.54C67.1817 3.54 67.6217 3.78667 67.9417 4.28C68.2617 4.77333 68.4217 5.39333 68.4217 6.14C68.4217 8.20667 67.555 10.0067 65.8217 11.54H68.0617C68.275 11.54 68.4283 11.5867 68.5217 11.68C68.615 11.7733 68.6617 11.9467 68.6617 12.2C68.6617 13.12 67.9083 13.58 66.4017 13.58H63.9617C63.935 14.2467 63.9217 14.7667 63.9217 15.14C63.9217 16.5267 64.0817 17.5 64.4017 18.06C64.735 18.62 65.255 18.9 65.9617 18.9C66.535 18.9 67.0417 18.7267 67.4817 18.38C67.9217 18.0333 68.4417 17.5133 69.0417 16.82C69.2017 16.6333 69.3817 16.54 69.5817 16.54ZM66.0817 5.46C65.8817 5.46 65.655 5.71333 65.4017 6.22C65.1617 6.71333 64.9283 7.40667 64.7017 8.3C64.4883 9.18 64.3083 10.16 64.1617 11.24C64.9483 10.56 65.535 9.8 65.9217 8.96C66.3217 8.10667 66.5217 7.33333 66.5217 6.64C66.5217 5.85333 66.375 5.46 66.0817 5.46ZM72.9732 21.1C72.1466 21.1 71.4866 20.8 70.9932 20.2C70.4999 19.6 70.2532 18.8133 70.2532 17.84C70.2532 16.7733 70.4999 15.7667 70.9932 14.82C71.4866 13.86 72.1399 13.0933 72.9532 12.52C73.7799 11.9333 74.6532 11.64 75.5732 11.64C75.8666 11.64 76.0599 11.7 76.1532 11.82C76.2599 11.9267 76.3466 12.1267 76.4132 12.42C76.6932 12.3667 76.9866 12.34 77.2932 12.34C77.9466 12.34 78.2732 12.5733 78.2732 13.04C78.2732 13.32 78.1732 13.9867 77.9732 15.04C77.6666 16.5733 77.5132 17.64 77.5132 18.24C77.5132 18.44 77.5599 18.6 77.6532 18.72C77.7599 18.84 77.8932 18.9 78.0532 18.9C78.3066 18.9 78.6132 18.74 78.9732 18.42C79.3332 18.0867 79.8199 17.5533 80.4332 16.82C80.5932 16.6333 80.7732 16.54 80.9732 16.54C81.1466 16.54 81.2799 16.62 81.3732 16.78C81.4799 16.94 81.5332 17.16 81.5332 17.44C81.5332 17.9733 81.4066 18.3867 81.1532 18.68C80.6066 19.36 80.0266 19.9333 79.4132 20.4C78.7999 20.8667 78.2066 21.1 77.6332 21.1C77.1932 21.1 76.7866 20.9533 76.4132 20.66C76.0532 20.3533 75.7799 19.94 75.5932 19.42C74.8999 20.54 74.0266 21.1 72.9732 21.1ZM73.6932 19.08C73.9866 19.08 74.2666 18.9067 74.5332 18.56C74.7999 18.2133 74.9932 17.7533 75.1132 17.18L75.8532 13.5C75.2932 13.5133 74.7732 13.7267 74.2932 14.14C73.8266 14.54 73.4532 15.0733 73.1732 15.74C72.8932 16.4067 72.7532 17.1133 72.7532 17.86C72.7532 18.2733 72.8332 18.58 72.9932 18.78C73.1666 18.98 73.3999 19.08 73.6932 19.08ZM85.6278 21.54C84.9344 21.54 84.4011 21.38 84.0278 21.06C83.6678 20.74 83.4878 20.38 83.4878 19.98C83.4878 19.6333 83.6144 19.3333 83.8678 19.08C84.1211 18.8267 84.4944 18.7 84.9878 18.7C85.1611 18.7 85.3611 18.72 85.5878 18.76C85.8278 18.7867 86.0078 18.8067 86.1278 18.82C86.1144 18.4733 86.0344 18.1467 85.8878 17.84C85.7544 17.5333 85.5811 17.24 85.3678 16.96C85.1544 16.6667 84.9544 16.4133 84.7678 16.2C84.3544 16.9867 83.9411 17.64 83.5278 18.16C83.1278 18.68 82.6878 19.1733 82.2078 19.64C81.9678 19.88 81.7144 20 81.4478 20C81.2344 20 81.0611 19.9267 80.9278 19.78C80.7944 19.62 80.7278 19.4267 80.7278 19.2C80.7278 18.9333 80.8211 18.6867 81.0078 18.46L81.2678 18.14C82.0011 17.2333 82.5544 16.4867 82.9278 15.9C83.1544 15.5133 83.4211 15 83.7278 14.36C84.0344 13.7067 84.3344 13.0333 84.6278 12.34C84.8811 11.7533 85.4078 11.46 86.2078 11.46C86.5811 11.46 86.8411 11.4933 86.9878 11.56C87.1344 11.6267 87.2078 11.7333 87.2078 11.88C87.2078 11.96 87.1811 12.0867 87.1278 12.26C87.0744 12.4333 87.0011 12.6067 86.9078 12.78C86.6678 13.26 86.5478 13.6667 86.5478 14C86.5478 14.2 86.6144 14.42 86.7478 14.66C86.8944 14.9 87.1144 15.2 87.4078 15.56C87.8344 16.12 88.1544 16.6 88.3678 17C88.5944 17.3867 88.7078 17.8133 88.7078 18.28C88.7078 18.4133 88.6944 18.6 88.6678 18.84C89.3211 18.5867 90.0878 17.9133 90.9678 16.82C91.1278 16.6333 91.3078 16.54 91.5078 16.54C91.6811 16.54 91.8144 16.62 91.9078 16.78C92.0144 16.94 92.0678 17.16 92.0678 17.44C92.0678 17.9467 91.9411 18.36 91.6878 18.68C91.0211 19.5067 90.3811 20.0733 89.7678 20.38C89.1678 20.6733 88.4211 20.8333 87.5278 20.86C86.9944 21.3133 86.3611 21.54 85.6278 21.54ZM94.9029 21.1C94.0762 21.1 93.4162 20.8 92.9229 20.2C92.4296 19.6 92.1829 18.8133 92.1829 17.84C92.1829 16.7733 92.4296 15.7667 92.9229 14.82C93.4162 13.86 94.0696 13.0933 94.8829 12.52C95.7096 11.9333 96.5829 11.64 97.5029 11.64C97.7962 11.64 97.9896 11.7 98.0829 11.82C98.1896 11.9267 98.2762 12.1267 98.3429 12.42C98.6229 12.3667 98.9162 12.34 99.2229 12.34C99.8762 12.34 100.203 12.5733 100.203 13.04C100.203 13.32 100.103 13.9867 99.9029 15.04C99.5962 16.5733 99.4429 17.64 99.4429 18.24C99.4429 18.44 99.4896 18.6 99.5829 18.72C99.6896 18.84 99.8229 18.9 99.9829 18.9C100.236 18.9 100.543 18.74 100.903 18.42C101.263 18.0867 101.75 17.5533 102.363 16.82C102.523 16.6333 102.703 16.54 102.903 16.54C103.076 16.54 103.21 16.62 103.303 16.78C103.41 16.94 103.463 17.16 103.463 17.44C103.463 17.9733 103.336 18.3867 103.083 18.68C102.536 19.36 101.956 19.9333 101.343 20.4C100.73 20.8667 100.136 21.1 99.5629 21.1C99.1229 21.1 98.7162 20.9533 98.3429 20.66C97.9829 20.3533 97.7096 19.94 97.5229 19.42C96.8296 20.54 95.9562 21.1 94.9029 21.1ZM95.6229 19.08C95.9162 19.08 96.1962 18.9067 96.4629 18.56C96.7296 18.2133 96.9229 17.7533 97.0429 17.18L97.7829 13.5C97.2229 13.5133 96.7029 13.7267 96.2229 14.14C95.7562 14.54 95.3829 15.0733 95.1029 15.74C94.8229 16.4067 94.6829 17.1133 94.6829 17.86C94.6829 18.2733 94.7629 18.58 94.9229 18.78C95.0962 18.98 95.3296 19.08 95.6229 19.08ZM105.257 21.1C104.751 21.1 104.391 20.8333 104.177 20.3C103.977 19.7667 103.877 18.9133 103.877 17.74C103.877 16.0067 104.124 14.36 104.617 12.8C104.737 12.4133 104.931 12.1333 105.197 11.96C105.477 11.7733 105.864 11.68 106.357 11.68C106.624 11.68 106.811 11.7133 106.917 11.78C107.024 11.8467 107.077 11.9733 107.077 12.16C107.077 12.3733 106.977 12.8533 106.777 13.6C106.644 14.1333 106.537 14.6 106.457 15C106.377 15.4 106.311 15.8933 106.257 16.48C106.697 15.3333 107.191 14.4 107.737 13.68C108.284 12.96 108.817 12.4467 109.337 12.14C109.871 11.8333 110.357 11.68 110.797 11.68C111.664 11.68 112.097 12.1133 112.097 12.98C112.097 13.1533 112.037 13.5733 111.917 14.24C111.811 14.7733 111.757 15.1067 111.757 15.24C111.757 15.7067 111.924 15.94 112.257 15.94C112.631 15.94 113.111 15.6467 113.697 15.06C113.871 14.8867 114.051 14.8 114.237 14.8C114.411 14.8 114.544 14.88 114.637 15.04C114.744 15.1867 114.797 15.3867 114.797 15.64C114.797 16.1333 114.664 16.52 114.397 16.8C114.024 17.1867 113.584 17.52 113.077 17.8C112.584 18.0667 112.057 18.2 111.497 18.2C110.791 18.2 110.251 18.02 109.877 17.66C109.517 17.3 109.337 16.8133 109.337 16.2C109.337 16 109.357 15.8 109.397 15.6C109.424 15.3333 109.437 15.1533 109.437 15.06C109.437 14.8467 109.364 14.74 109.217 14.74C109.017 14.74 108.751 14.9667 108.417 15.42C108.097 15.86 107.777 16.4467 107.457 17.18C107.137 17.9133 106.877 18.6867 106.677 19.5C106.531 20.1267 106.357 20.5533 106.157 20.78C105.971 20.9933 105.671 21.1 105.257 21.1ZM117.699 10.36C117.139 10.36 116.719 10.2333 116.439 9.98C116.159 9.71333 116.019 9.34667 116.019 8.88C116.019 8.41333 116.199 8.02667 116.559 7.72C116.932 7.4 117.392 7.24 117.939 7.24C118.432 7.24 118.832 7.36 119.139 7.6C119.446 7.84 119.599 8.18 119.599 8.62C119.599 9.15333 119.426 9.58 119.079 9.9C118.732 10.2067 118.272 10.36 117.699 10.36ZM115.779 21.1C115.352 21.1 115.059 21.0133 114.899 20.84C114.739 20.6667 114.659 20.3933 114.659 20.02C114.659 19.9133 114.672 19.7267 114.699 19.46C114.912 17.02 115.266 14.8 115.759 12.8C115.866 12.3867 116.039 12.1 116.279 11.94C116.532 11.7667 116.932 11.68 117.479 11.68C118.052 11.68 118.339 11.9133 118.339 12.38C118.339 12.4467 118.326 12.5733 118.299 12.76C117.699 15.6133 117.339 18.0067 117.219 19.94C117.192 20.3667 117.066 20.6667 116.839 20.84C116.612 21.0133 116.259 21.1 115.779 21.1Z" fill="#0C1D37"/>
</svg>
